<?xml version="1.0" encoding="UTF-8"?>
<svg width="11px" height="10px" viewBox="0 0 11 10" version="1.1" xmlns="http://www.w3.org/2000/svg" xmlns:xlink="http://www.w3.org/1999/xlink">
    <title>bi:check-lg</title>
    <g id="Page-1" stroke="none" stroke-width="1" fill="none" fill-rule="evenodd">
        <g id="login" transform="translate(-370.000000, -389.000000)" fill="#000000" fill-rule="nonzero">
            <g id="bi:check-lg" transform="translate(370.000000, 389.000000)">
                <path d="M9.736,0.97 C9.87386401,0.829332313 10.0625384,0.750066029 10.2595,0.750066029 C10.4564616,0.750066029 10.645136,0.829332313 10.783,0.97 C11.069,1.259 11.073,1.726 10.793,2.02 L4.88,9.01 C4.74432001,9.15899288 4.55328544,9.24555628 4.35180685,9.24933992 C4.15032826,9.25312355 3.95617833,9.17379366 3.815,9.03 L0.217,5.384 C-0.0716558743,5.08962106 -0.0716558743,4.61837894 0.217,4.324 C0.354864014,4.18333231 0.543538368,4.10406603 0.7405,4.10406603 C0.937461632,4.10406603 1.12613599,4.18333231 1.264,4.324 L4.316,7.417 L9.716,0.992 C9.72221885,0.984271712 9.72889761,0.976925073 9.736,0.97 Z" id="Path"></path>
            </g>
        </g>
    </g>
</svg>