<?xml version="1.0" encoding="UTF-8"?>
<svg width="24px" height="24px" viewBox="0 0 24 24" version="1.1" xmlns="http://www.w3.org/2000/svg" xmlns:xlink="http://www.w3.org/1999/xlink">
    <title>radix-icons:cross-circled</title>
    <g id="Page-1" stroke="none" stroke-width="1" fill="none" fill-rule="evenodd">
        <g id="create_tags" transform="translate(-912.000000, -137.000000)" fill="#000000">
            <g id="radix-icons:cross-circled" transform="translate(912.440000, 137.500000)">
                <path d="M0.579681,11.5275 C0.579681,5.48118652 5.48118652,0.579681 11.5275,0.579681 C17.5738135,0.579681 22.475319,5.48118652 22.475319,11.5275 C22.475319,17.5738135 17.5738135,22.475319 11.5275,22.475319 C5.48118652,22.475319 0.579681,17.5738135 0.579681,11.5275 Z M11.5275,2.150031 C6.34846688,2.150031 2.150031,6.34846688 2.150031,11.5275 C2.150031,16.7065331 6.34846688,20.904969 11.5275,20.904969 C16.7065331,20.904969 20.904969,16.7065331 20.904969,11.5275 C20.904969,6.34846688 16.7065331,2.150031 11.5275,2.150031 Z M15.418662,7.637991 C15.7413127,7.96073913 15.7413127,8.48391387 15.418662,8.806662 L12.696171,11.5275 L15.418662,14.248338 C15.741838,14.571514 15.741838,15.095486 15.418662,15.418662 C15.095486,15.741838 14.571514,15.741838 14.248338,15.418662 L11.5275,12.696171 L8.806662,15.418662 C8.59760375,15.6277202 8.29289472,15.7093668 8.00731584,15.6328462 C7.72173697,15.5563255 7.49867447,15.333263 7.42215384,15.0476842 C7.34563321,14.7621053 7.42727975,14.4573962 7.636338,14.248338 L10.358829,11.5275 L7.636338,8.806662 C7.31316195,8.48348595 7.31316195,7.95951405 7.636338,7.636338 C7.95951405,7.31316195 8.48348595,7.31316195 8.806662,7.636338 L11.5275,10.358829 L14.248338,7.636338 C14.4033964,7.48088707 14.6139365,7.39352258 14.8335,7.39352258 C15.0530635,7.39352258 15.2636036,7.48088707 15.418662,7.636338 L15.418662,7.637991 Z" id="Shape"></path>
            </g>
        </g>
    </g>
</svg>