<?xml version="1.0" encoding="UTF-8"?>
<svg width="19px" height="16px" viewBox="0 0 19 16" version="1.1" xmlns="http://www.w3.org/2000/svg" xmlns:xlink="http://www.w3.org/1999/xlink">
    <title>Suche</title>
    <g id="Page-1" stroke="none" stroke-width="1" fill="none" fill-rule="evenodd">
        <g id="login" transform="translate(-504.000000, -259.000000)" fill="#616161">
            <g id="Group-2" transform="translate(485.000000, 103.000000)">
                <g id="Suche" transform="translate(19.202500, 156.680000)">
                    <path d="M1.76054,0 L15.84486,0 C16.8172062,0 17.6054,0.788193758 17.6054,1.76054 L17.6054,12.3238064 C17.6054,13.2960646 16.8172062,14.0843464 15.84486,14.0843464 L1.76054,14.0843464 C0.788220166,14.0843464 0,13.2960646 0,12.3238064 L0,1.76054 C0,0.788193758 0.788220166,0 1.76054,0 Z M8.8027,6.16191641 L15.84486,1.76054 L1.76054,1.76054 L8.8027,6.16191641 Z M1.76054,12.3238064 L15.84486,12.3238064 L15.84486,3.8467799 L8.8027,8.23812123 L1.76054,3.8467799 L1.76054,12.3238064 Z" id="Shape"></path>
                </g>
            </g>
        </g>
    </g>
</svg>