<?xml version="1.0" encoding="UTF-8"?>
<svg width="18px" height="22px" viewBox="0 0 18 22" version="1.1" xmlns="http://www.w3.org/2000/svg" xmlns:xlink="http://www.w3.org/1999/xlink">
    <title>bx:lock</title>
    <g id="Page-1" stroke="none" stroke-width="1" fill="none" fill-rule="evenodd">
        <g id="login" transform="translate(-504.000000, -356.000000)" fill="#616161" fill-rule="nonzero">
            <g id="Group-2" transform="translate(485.000000, 103.000000)">
                <g id="Outline" transform="translate(0.000000, 238.490000)">
                    <g id="bx:lock" transform="translate(19.675000, 14.669565)">
                        <path d="M8.5275,0.417391304 C5.90835,0.417391304 3.7775,2.64088696 3.7775,5.37391304 L3.7775,7.35652174 L2.8275,7.35652174 C1.77965,7.35652174 0.9275,8.24572174 0.9275,9.33913043 L0.9275,18.2608696 C0.9275,19.3542783 1.77965,20.2434783 2.8275,20.2434783 L14.2275,20.2434783 C15.27535,20.2434783 16.1275,19.3542783 16.1275,18.2608696 L16.1275,9.33913043 C16.1275,8.24572174 15.27535,7.35652174 14.2275,7.35652174 L13.2775,7.35652174 L13.2775,5.37391304 C13.2775,2.64088696 11.14665,0.417391304 8.5275,0.417391304 Z M5.6775,5.37391304 C5.6775,3.73429565 6.9562,2.4 8.5275,2.4 C10.0988,2.4 11.3775,3.73429565 11.3775,5.37391304 L11.3775,7.35652174 L5.6775,7.35652174 L5.6775,5.37391304 Z M14.2294,18.2608696 L9.4775,18.2608696 L9.4775,16.0026783 C10.04275,15.6586957 10.4275,15.0262435 10.4275,14.2956522 C10.4275,13.2022435 9.57535,12.3130435 8.5275,12.3130435 C7.47965,12.3130435 6.6275,13.2022435 6.6275,14.2956522 C6.6275,15.0252522 7.01225,15.6586957 7.5775,16.0026783 L7.5775,18.2608696 L2.8275,18.2608696 L2.8275,9.33913043 L14.2275,9.33913043 L14.2294,18.2608696 L14.2294,18.2608696 Z" id="Shape"></path>
                    </g>
                </g>
            </g>
        </g>
    </g>
</svg>