<?xml version="1.0" encoding="UTF-8"?>
<svg width="43px" height="38px" viewBox="0 0 43 38" version="1.1" xmlns="http://www.w3.org/2000/svg" xmlns:xlink="http://www.w3.org/1999/xlink">
    <title>Group 3</title>
    <defs>
        <filter id="filter-1">
            <feColorMatrix in="SourceGraphic" type="matrix" values="0 0 0 0 1.000000 0 0 0 0 1.000000 0 0 0 0 1.000000 0 0 0 1.000000 0"></feColorMatrix>
        </filter>
    </defs>
    <g id="Page-1" stroke="none" stroke-width="1" fill="none" fill-rule="evenodd">
        <g id="create_problem" transform="translate(-858.000000, -563.000000)">
            <g id="Group-3" transform="translate(858.928571, 563.000000)">
                <rect id="Rectangle" fill="#136F63" x="0" y="0" width="42" height="38" rx="5"></rect>
                <g filter="url(#filter-1)" id="eva:plus-outline">
                    <g transform="translate(13.000000, 11.000000)">
                        <path d="M15,7 L9,7 L9,1 C9,0.44771525 8.55228475,0 8,0 C7.44771525,0 7,0.44771525 7,1 L7,7 L1,7 C0.44771525,7 0,7.44771525 0,8 C0,8.55228475 0.44771525,9 1,9 L7,9 L7,15 C7,15.5522847 7.44771525,16 8,16 C8.55228475,16 9,15.5522847 9,15 L9,9 L15,9 C15.5522847,9 16,8.55228475 16,8 C16,7.44771525 15.5522847,7 15,7 Z" id="Path" fill="#000000" fill-rule="nonzero"></path>
                    </g>
                </g>
            </g>
        </g>
    </g>
</svg>